<mxfile host="app.diagrams.net" agent="Mozilla/5.0 (Windows NT 10.0; Win64; x64) AppleWebKit/537.36 (KHTML, like Gecko) Chrome/136.0.0.0 Safari/537.36" version="27.0.6">
  <diagram name="第1頁" id="7BvQk-bxPXkPBGm2gwmo">
    <mxGraphModel dx="854" dy="427" grid="1" gridSize="10" guides="1" tooltips="1" connect="1" arrows="1" fold="1" page="1" pageScale="1" pageWidth="1169" pageHeight="827" math="0" shadow="0">
      <root>
        <mxCell id="0" />
        <mxCell id="1" parent="0" />
        <mxCell id="0-MdYvm-MBJdV8fhec4m-18" value="" style="endArrow=none;dashed=1;html=1;dashPattern=1 4;strokeWidth=2;rounded=0;" edge="1" parent="1">
          <mxGeometry width="50" height="50" relative="1" as="geometry">
            <mxPoint x="800" y="190" as="sourcePoint" />
            <mxPoint x="860" y="190" as="targetPoint" />
          </mxGeometry>
        </mxCell>
        <mxCell id="0-MdYvm-MBJdV8fhec4m-20" value="" style="group" vertex="1" connectable="0" parent="1">
          <mxGeometry x="290" y="120" width="140" height="230" as="geometry" />
        </mxCell>
        <mxCell id="0-MdYvm-MBJdV8fhec4m-11" value="" style="endArrow=none;html=1;rounded=0;strokeColor=#CCCCCC;strokeWidth=2;" edge="1" parent="0-MdYvm-MBJdV8fhec4m-20">
          <mxGeometry width="50" height="50" relative="1" as="geometry">
            <mxPoint x="69.5" y="170" as="sourcePoint" />
            <mxPoint x="69.5" y="80" as="targetPoint" />
          </mxGeometry>
        </mxCell>
        <mxCell id="0-MdYvm-MBJdV8fhec4m-1" value="&lt;font face=&quot;標楷體&quot;&gt;環境 1&lt;/font&gt;&lt;div&gt;&lt;font face=&quot;標楷體&quot;&gt;Environment 1&amp;nbsp;&lt;/font&gt;&lt;/div&gt;" style="ellipse;shape=cloud;whiteSpace=wrap;html=1;" vertex="1" parent="0-MdYvm-MBJdV8fhec4m-20">
          <mxGeometry width="130" height="90" as="geometry" />
        </mxCell>
        <mxCell id="0-MdYvm-MBJdV8fhec4m-19" value="" style="curved=1;endArrow=block;html=1;rounded=0;entryX=0.13;entryY=0.77;entryDx=0;entryDy=0;entryPerimeter=0;strokeColor=#CCCCCC;strokeWidth=2;align=center;verticalAlign=middle;fontFamily=Helvetica;fontSize=11;fontColor=default;labelBackgroundColor=default;endFill=1;" edge="1" parent="0-MdYvm-MBJdV8fhec4m-20">
          <mxGeometry width="50" height="50" relative="1" as="geometry">
            <mxPoint x="90" y="170" as="sourcePoint" />
            <mxPoint x="176.9000000000001" y="69.29999999999995" as="targetPoint" />
            <Array as="points">
              <mxPoint x="140" y="170" />
              <mxPoint x="140" y="90" />
            </Array>
          </mxGeometry>
        </mxCell>
        <mxCell id="0-MdYvm-MBJdV8fhec4m-2" value="&lt;font face=&quot;標楷體&quot;&gt;制定 1&lt;/font&gt;&lt;div&gt;&lt;font face=&quot;標楷體&quot;&gt;Enactment 1&amp;nbsp;&lt;/font&gt;&lt;/div&gt;" style="rounded=1;whiteSpace=wrap;html=1;" vertex="1" parent="0-MdYvm-MBJdV8fhec4m-20">
          <mxGeometry x="10" y="170" width="120" height="60" as="geometry" />
        </mxCell>
        <mxCell id="0-MdYvm-MBJdV8fhec4m-24" value="" style="group" vertex="1" connectable="0" parent="1">
          <mxGeometry x="450" y="120" width="140" height="230" as="geometry" />
        </mxCell>
        <mxCell id="0-MdYvm-MBJdV8fhec4m-25" value="" style="endArrow=none;html=1;rounded=0;strokeColor=#CCCCCC;strokeWidth=2;" edge="1" parent="0-MdYvm-MBJdV8fhec4m-24">
          <mxGeometry width="50" height="50" relative="1" as="geometry">
            <mxPoint x="69.5" y="170" as="sourcePoint" />
            <mxPoint x="69.5" y="80" as="targetPoint" />
          </mxGeometry>
        </mxCell>
        <mxCell id="0-MdYvm-MBJdV8fhec4m-26" value="&lt;font face=&quot;標楷體&quot;&gt;環境 2&lt;/font&gt;&lt;div&gt;&lt;font face=&quot;標楷體&quot;&gt;Environment 2&amp;nbsp;&lt;/font&gt;&lt;/div&gt;" style="ellipse;shape=cloud;whiteSpace=wrap;html=1;" vertex="1" parent="0-MdYvm-MBJdV8fhec4m-24">
          <mxGeometry width="130" height="90" as="geometry" />
        </mxCell>
        <mxCell id="0-MdYvm-MBJdV8fhec4m-27" value="" style="curved=1;endArrow=block;html=1;rounded=0;entryX=0.13;entryY=0.77;entryDx=0;entryDy=0;entryPerimeter=0;strokeColor=#CCCCCC;strokeWidth=2;align=center;verticalAlign=middle;fontFamily=Helvetica;fontSize=11;fontColor=default;labelBackgroundColor=default;endFill=1;" edge="1" parent="0-MdYvm-MBJdV8fhec4m-24">
          <mxGeometry width="50" height="50" relative="1" as="geometry">
            <mxPoint x="90" y="170" as="sourcePoint" />
            <mxPoint x="176.9000000000001" y="69.29999999999995" as="targetPoint" />
            <Array as="points">
              <mxPoint x="140" y="170" />
              <mxPoint x="140" y="90" />
            </Array>
          </mxGeometry>
        </mxCell>
        <mxCell id="0-MdYvm-MBJdV8fhec4m-28" value="&lt;font face=&quot;標楷體&quot;&gt;制定 2&lt;/font&gt;&lt;div&gt;&lt;font face=&quot;標楷體&quot;&gt;Enactment 2&amp;nbsp;&lt;/font&gt;&lt;/div&gt;" style="rounded=1;whiteSpace=wrap;html=1;" vertex="1" parent="0-MdYvm-MBJdV8fhec4m-24">
          <mxGeometry x="10" y="170" width="120" height="60" as="geometry" />
        </mxCell>
        <mxCell id="0-MdYvm-MBJdV8fhec4m-29" value="" style="group" vertex="1" connectable="0" parent="1">
          <mxGeometry x="610" y="120" width="140" height="230" as="geometry" />
        </mxCell>
        <mxCell id="0-MdYvm-MBJdV8fhec4m-30" value="" style="endArrow=none;html=1;rounded=0;strokeColor=#CCCCCC;strokeWidth=2;" edge="1" parent="0-MdYvm-MBJdV8fhec4m-29">
          <mxGeometry width="50" height="50" relative="1" as="geometry">
            <mxPoint x="69.5" y="170" as="sourcePoint" />
            <mxPoint x="69.5" y="80" as="targetPoint" />
          </mxGeometry>
        </mxCell>
        <mxCell id="0-MdYvm-MBJdV8fhec4m-31" value="&lt;font face=&quot;標楷體&quot;&gt;環境 3&lt;/font&gt;&lt;div&gt;&lt;font face=&quot;標楷體&quot;&gt;Environment 3&amp;nbsp;&lt;/font&gt;&lt;/div&gt;" style="ellipse;shape=cloud;whiteSpace=wrap;html=1;" vertex="1" parent="0-MdYvm-MBJdV8fhec4m-29">
          <mxGeometry width="130" height="90" as="geometry" />
        </mxCell>
        <mxCell id="0-MdYvm-MBJdV8fhec4m-32" value="" style="curved=1;endArrow=block;html=1;rounded=0;entryX=0.13;entryY=0.77;entryDx=0;entryDy=0;entryPerimeter=0;strokeColor=#CCCCCC;strokeWidth=2;align=center;verticalAlign=middle;fontFamily=Helvetica;fontSize=11;fontColor=default;labelBackgroundColor=default;endFill=1;" edge="1" parent="0-MdYvm-MBJdV8fhec4m-29">
          <mxGeometry width="50" height="50" relative="1" as="geometry">
            <mxPoint x="90" y="170" as="sourcePoint" />
            <mxPoint x="176.9000000000001" y="69.29999999999995" as="targetPoint" />
            <Array as="points">
              <mxPoint x="140" y="170" />
              <mxPoint x="140" y="90" />
            </Array>
          </mxGeometry>
        </mxCell>
        <mxCell id="0-MdYvm-MBJdV8fhec4m-33" value="&lt;font face=&quot;標楷體&quot;&gt;制定 3&lt;/font&gt;&lt;div&gt;&lt;font face=&quot;標楷體&quot;&gt;Enactment 3&amp;nbsp;&lt;/font&gt;&lt;/div&gt;" style="rounded=1;whiteSpace=wrap;html=1;" vertex="1" parent="0-MdYvm-MBJdV8fhec4m-29">
          <mxGeometry x="10" y="170" width="120" height="60" as="geometry" />
        </mxCell>
      </root>
    </mxGraphModel>
  </diagram>
</mxfile>
